<?xml version="1.0" encoding="utf-8"?>
<!-- Generator: Adobe Illustrator 18.1.1, SVG Export Plug-In . SVG Version: 6.00 Build 0)  -->
<svg version="1.1" id="Capa_1" xmlns="http://www.w3.org/2000/svg" xmlns:xlink="http://www.w3.org/1999/xlink" x="0px" y="0px"
	 viewBox="0 0 60 60" enable-background="new 0 0 60 60" xml:space="preserve">
<g>
	<g id="Layer_1_62_">
		<g>
			<path fill="#FFFFFF" d="M21,38.3c-4.6,0-8.3-3.7-8.3-8.3c0-4.6,3.7-8.3,8.3-8.3c4.6,0,8.3,3.7,8.3,8.3
				C29.3,34.6,25.6,38.3,21,38.3z M21,25c-2.8,0-5,2.2-5,5s2.2,5,5,5s5-2.2,5-5S23.8,25,21,25z"/>
		</g>
		<g>
			<path fill="#FFFFFF" d="M41,38.3c-4.6,0-8.3-3.7-8.3-8.3c0-4.6,3.7-8.3,8.3-8.3s8.3,3.7,8.3,8.3C49.3,34.6,45.6,38.3,41,38.3z"/>
		</g>
	</g>
</g>
<g>
	<path fill="#FFFFFF" d="M30,0C13.4,0,0,13.4,0,30c0,16.6,13.4,30,30,30c16.6,0,30-13.4,30-30C60,13.4,46.6,0,30,0z M30,55.3
		C16,55.3,4.7,44,4.7,30S16,4.7,30,4.7S55.3,16,55.3,30S44,55.3,30,55.3z"/>
</g>
</svg>
