<?xml version="1.0" encoding="utf-8"?>
<!-- Generator: Adobe Illustrator 18.1.1, SVG Export Plug-In . SVG Version: 6.00 Build 0)  -->
<svg version="1.1" id="Capa_1" xmlns="http://www.w3.org/2000/svg" xmlns:xlink="http://www.w3.org/1999/xlink" x="0px" y="0px"
	 viewBox="0 0 60 60" enable-background="new 0 0 60 60" xml:space="preserve">
<g>
	<path fill="#FFFFFF" d="M35.2,32.1c-1.2,0-2.1,1.3-2.1,2.9s0.9,2.9,2.1,2.9s2.1-1.3,2.1-2.9C37.3,33.4,36.4,32.1,35.2,32.1z
		 M42.6,24.5c0.2-0.6,0.3-4-1-7.2c0,0-3,0.3-7.4,3.4c-0.9-0.3-2.5-0.4-4.1-0.4s-3.2,0.1-4.1,0.4c-4.5-3.1-7.4-3.4-7.4-3.4
		c-1.3,3.2-1.3,6.6-1,7.2c-1.5,1.6-2.4,3.6-2.4,6.3c0,11.7,9.7,11.9,12.2,11.9c0.6,0,1.7,0,2.8,0c1.2,0,2.3,0,2.8,0
		c2.5,0,12.2-0.2,12.2-11.9C45,28.1,44.1,26.1,42.6,24.5z M30,41.3L30,41.3c-6.2,0-11-0.7-11-6.7c0-1.4,0.5-2.8,1.7-3.9
		c2-1.8,5.4-0.9,9.2-0.9l0,0l0,0c3.8,0,7.2-1,9.2,0.9c1.2,1.1,1.7,2.4,1.7,3.9C41,40.5,36.2,41.3,30,41.3z M24.8,32.1
		c-1.2,0-2.1,1.3-2.1,2.9s0.9,2.9,2.1,2.9c1.2,0,2.1-1.3,2.1-2.9S26,32.1,24.8,32.1z"/>
</g>
<g>
	<path fill="#FFFFFF" d="M30,0C13.4,0,0,13.4,0,30c0,16.6,13.4,30,30,30s30-13.4,30-30C60,13.4,46.6,0,30,0z M30,55.3
		C16,55.3,4.7,44,4.7,30S16,4.7,30,4.7S55.3,16,55.3,30S44,55.3,30,55.3z"/>
</g>
</svg>
