<?xml version="1.0" encoding="utf-8"?>
<!-- Generator: Adobe Illustrator 18.1.1, SVG Export Plug-In . SVG Version: 6.00 Build 0)  -->
<svg version="1.1" id="Layer_1" xmlns="http://www.w3.org/2000/svg" xmlns:xlink="http://www.w3.org/1999/xlink" x="0px" y="0px"
	 viewBox="0 0 1000 1000" enable-background="new 0 0 1000 1000" xml:space="preserve">
<g>
	<g>
		<path fill="#F52323" d="M944.5,860.9H110.9C98.4,860.9,89,850.7,89,839v-10.9c0-12.5,10.2-21.9,21.9-21.9
			c7.8,0,15.6,4.7,18.8,10.9h804.7l20.3-20.3V359.4l-26.6-26.6c-3.1-4.7-5.5-10.2-5.5-15.6V183.6h-789V250
			c0,12.5-10.2,21.9-21.9,21.9S89.8,261.7,89.8,250v-89.1c0-12.5,10.2-21.9,21.9-21.9h833.6c12.5,0,21.9,10.2,21.9,21.9v146.9
			l26.6,26.6c4.7,4.7,7,10.2,7,15.6v455.5c0,5.5-2.3,10.9-7,15.6l-33.6,33.6C955.5,858.6,950,860.9,944.5,860.9z"/>
	</g>
	<g>
		<path fill="#F52323" d="M110.9,660.9C98.4,660.9,89,650.7,89,639V471.9c0-12.5,10.2-21.9,21.9-21.9s21.9,10.2,21.9,21.9v166.4
			C133.6,650.8,123.4,660.9,110.9,660.9z"/>
	</g>
	<path fill="#F52323" d="M194.5,439.1H16.4c-8.6,0-16.4-7.8-16.4-17.2V300c0-8.6,7.8-16.4,16.4-16.4h178.1c8.6,0,16.4,7.8,16.4,16.4
		v121.9C210.9,431.2,203.1,439.1,194.5,439.1z"/>
	<path fill="#F52323" d="M227.3,794.5H71.9c-8.6,0-16.4-7.8-16.4-16.4V689c0-8.6,7.8-16.4,16.4-16.4h155.5c8.6,0,16.4,7.8,16.4,16.4
		v89.1C244.5,786.7,236.7,794.5,227.3,794.5z"/>
	<path fill="#F52323" d="M489.1,560.9c-7,0-10.9,4.7-10.9,10.9v10.9H500v-10.9C500,565.6,495.3,560.9,489.1,560.9z"/>
	<path fill="#F52323" d="M455.5,560.9c-7,0-10.9,4.7-10.9,10.9v10.9h21.9v-10.9C466.4,565.6,462.5,560.9,455.5,560.9z"/>
	<path fill="#F52323" d="M521.9,560.9c-7,0-10.9,4.7-10.9,10.9v10.9h21.9v-10.9C533.6,565.6,528.9,560.9,521.9,560.9z"/>
	<path fill="#F52323" d="M555.5,560.9c-7,0-10.9,4.7-10.9,10.9v10.9h21.9v-10.9C566.4,565.6,562.5,560.9,555.5,560.9z"/>
	<path fill="#F52323" d="M589.1,560.9c-7,0-10.9,4.7-10.9,10.9v10.9H600v-10.9C600,565.6,595.3,560.9,589.1,560.9z"/>
	<path fill="#F52323" d="M621.9,560.9c-7,0-10.9,4.7-10.9,10.9v10.9h21.9v-10.9C633.6,565.6,628.9,560.9,621.9,560.9z"/>
	<path fill="#F52323" d="M655.5,560.9c-7,0-10.9,4.7-10.9,10.9v10.9h21.9v-10.9C666.4,565.6,662.5,560.9,655.5,560.9z"/>
	<path fill="#F52323" d="M689.1,560.9c-7,0-10.9,4.7-10.9,10.9v10.9H700v-10.9C700,565.6,695.3,560.9,689.1,560.9z"/>
	<path fill="#F52323" d="M721.9,560.9c-7,0-10.9,4.7-10.9,10.9v10.9h21.9v-10.9C733.6,565.6,728.9,560.9,721.9,560.9z"/>
	<path fill="#F52323" d="M755.5,560.9c-7,0-10.9,4.7-10.9,10.9v10.9h21.9v-10.9C766.4,565.6,762.5,560.9,755.5,560.9z"/>
	<path fill="#F52323" d="M789.1,560.9c-7,0-10.9,4.7-10.9,10.9v10.9H800v-10.9C800,565.6,795.3,560.9,789.1,560.9z"/>
	<path fill="#F52323" d="M821.9,560.9c-7,0-10.9,4.7-10.9,10.9v10.9h21.9v-10.9C833.6,565.6,828.9,560.9,821.9,560.9z"/>
	<path fill="#F52323" d="M855.5,560.9c-7,0-10.9,4.7-10.9,10.9v10.9h21.9v-10.9C866.4,565.6,862.5,560.9,855.5,560.9z"/>
	<path fill="#F52323" d="M889.1,560.9c-7,0-10.9,4.7-10.9,10.9v10.9H900v-10.9C900,565.6,895.3,560.9,889.1,560.9z"/>
	<path fill="#F52323" d="M855.5,728.1c7,0,10.9-4.7,10.9-10.9v-10.9h-21.9v10.9C844.5,723.4,848.4,728.1,855.5,728.1z"/>
	<path fill="#F52323" d="M889.1,728.1c7,0,10.9-4.7,10.9-10.9v-10.9h-21.9v10.9C877.3,723.4,882,728.1,889.1,728.1z"/>
	<path fill="#F52323" d="M821.9,728.1c7,0,10.9-4.7,10.9-10.9v-10.9h-21.9v10.9C810.9,723.4,815.6,728.1,821.9,728.1z"/>
	<path fill="#F52323" d="M789.1,728.1c7,0,10.9-4.7,10.9-10.9v-10.9h-21.9v10.9C777.3,723.4,782,728.1,789.1,728.1z"/>
	<path fill="#F52323" d="M755.5,728.1c7,0,10.9-4.7,10.9-10.9v-10.9h-21.9v10.9C744.5,723.4,748.4,728.1,755.5,728.1z"/>
	<path fill="#F52323" d="M721.9,728.1c7,0,10.9-4.7,10.9-10.9v-10.9h-21.9v10.9C710.9,723.4,715.6,728.1,721.9,728.1z"/>
	<path fill="#F52323" d="M689.1,728.1c7,0,10.9-4.7,10.9-10.9v-10.9h-21.9v10.9C677.3,723.4,682,728.1,689.1,728.1z"/>
	<path fill="#F52323" d="M655.5,728.1c7,0,10.9-4.7,10.9-10.9v-10.9h-21.9v10.9C644.5,723.4,648.4,728.1,655.5,728.1z"/>
	<path fill="#F52323" d="M621.9,728.1c7,0,10.9-4.7,10.9-10.9v-10.9h-21.9v10.9C610.9,723.4,615.6,728.1,621.9,728.1z"/>
	<path fill="#F52323" d="M589.1,728.1c7,0,10.9-4.7,10.9-10.9v-10.9h-21.9v10.9C577.3,723.4,582,728.1,589.1,728.1z"/>
	<path fill="#F52323" d="M555.5,728.1c7,0,10.9-4.7,10.9-10.9v-10.9h-21.9v10.9C544.5,723.4,548.4,728.1,555.5,728.1z"/>
	<path fill="#F52323" d="M521.9,728.1c7,0,10.9-4.7,10.9-10.9v-10.9h-21.9v10.9C510.9,723.4,515.6,728.1,521.9,728.1z"/>
	<path fill="#F52323" d="M489.1,728.1c7,0,10.9-4.7,10.9-10.9v-10.9h-21.9v10.9C477.3,723.4,482,728.1,489.1,728.1z"/>
	<path fill="#F52323" d="M455.5,728.1c7,0,10.9-4.7,10.9-10.9v-10.9h-21.9v10.9C444.5,723.4,448.4,728.1,455.5,728.1z"/>
	<path fill="#F52323" d="M910.9,594.5H433.6c-7,0-10.9,4.7-10.9,10.9v78.1c0,7,4.7,10.9,10.9,10.9h478.1c7,0,10.9-4.7,10.9-10.9
		v-78.1C921.9,599.2,918,594.5,910.9,594.5z M910.9,666.4c-12.5,0-21.9-10.2-21.9-21.9c0-12.5,10.2-21.9,21.9-21.9V666.4z"/>
	<path fill="#F52323" d="M335.2,362.5c0,96.9,133.6,133.6,199.2,34.4c68,102.3,195.3,58.6,195.3-34.4s-126.6-139.1-195.3-34.4
		C469.5,224.2,335.2,265.6,335.2,362.5L335.2,362.5z M371.1,362.5c0-70.3,99.2-92.2,144.5,0C468.8,450,371.1,432,371.1,362.5
		L371.1,362.5z M554.7,362.5c41.4-93,143-68,142.2,0C696.9,429.7,594.5,450.8,554.7,362.5z"/>
	<rect x="407.8" y="352.3" fill="#F52323" width="58.6" height="18.8"/>
	<polygon fill="#F52323" points="621.1,371.1 600.8,371.1 600.8,350.8 621.1,350.8 621.1,331.2 640.6,331.2 640.6,350.8 
		660.2,350.8 660.2,371.1 640.6,371.1 640.6,389.8 621.1,389.8 	"/>
</g>
</svg>
