<?xml version="1.0" encoding="utf-8"?>
<!-- Generator: Adobe Illustrator 18.1.1, SVG Export Plug-In . SVG Version: 6.00 Build 0)  -->
<svg version="1.1" id="Layer_2" xmlns="http://www.w3.org/2000/svg" xmlns:xlink="http://www.w3.org/1999/xlink" x="0px" y="0px"
	 viewBox="0 0 60 60" enable-background="new 0 0 60 60" xml:space="preserve">
<g>
	<path fill="#FFFFFF" d="M39.2,15H20.8c-3.2,0-5.8,2.6-5.8,5.8v6.1v12.3c0,3.2,2.6,5.8,5.8,5.8h18.4c3.2,0,5.8-2.6,5.8-5.8V26.9
		v-6.1C45,17.6,42.4,15,39.2,15z M40.9,18.4h0.7v0.7v4.4h-5.1v-5.1H40.9z M25.7,26.9c1-1.3,2.5-2.2,4.3-2.2s3.3,0.9,4.3,2.2
		c0.6,0.9,1,1.9,1,3.1c0,2.9-2.4,5.3-5.3,5.3s-5.3-2.4-5.3-5.3C24.7,28.8,25.1,27.8,25.7,26.9z M42.1,39.2c0,1.6-1.3,2.9-2.9,2.9
		H20.8c-1.6,0-2.9-1.3-2.9-2.9V26.9h4.5c-0.4,0.9-0.6,2-0.6,3.1c0,4.5,3.7,8.2,8.2,8.2s8.2-3.7,8.2-8.2c0-1.1-0.2-2.1-0.6-3.1h4.5
		L42.1,39.2L42.1,39.2z"/>
</g>
<g>
	<path fill="#FFFFFF" d="M30,0C13.4,0,0,13.4,0,30c0,16.6,13.4,30,30,30s30-13.4,30-30C60,13.4,46.6,0,30,0z M30,55.3
		C16,55.3,4.7,44,4.7,30S16,4.7,30,4.7S55.3,16,55.3,30C55.3,44,44,55.3,30,55.3z"/>
</g>
</svg>
