<?xml version="1.0" encoding="utf-8"?>
<!-- Generator: Adobe Illustrator 18.1.1, SVG Export Plug-In . SVG Version: 6.00 Build 0)  -->
<svg version="1.1" id="Capa_1" xmlns="http://www.w3.org/2000/svg" xmlns:xlink="http://www.w3.org/1999/xlink" x="0px" y="0px"
	 viewBox="0 1000 60 60" enable-background="new 0 1000 60 60" xml:space="preserve">
<g>
	<g>
		<g>
			<path fill="#FFFFFF" d="M40.5,1027.6l-2.2-0.5c-1.6-0.4-2-1-2-2c0-1.2,1-1.8,2.4-1.8c1.6,0,2.5,0.6,2.7,2.1l3.5-0.4
				c-0.3-3.1-2.4-4.4-5.9-4.4c-3.1,0-6.1,1.2-6.1,5c0,2.4,1.1,3.8,4,4.5l2.4,0.5c1.8,0.4,2.4,1.1,2.4,2.1c0,1.3-1.3,1.8-3.5,1.8
				c-3.5,0-5-1.8-5.8-4.4l-1.1-3.5c-1.5-4.5-3.8-6.1-8.3-6.1c-5,0-7.8,3.2-7.8,8.6c0,5.2,2.7,8.1,7.5,8.1c3.9,0,5.8-1.8,5.8-1.8
				l-1.1-3c0,0-1.8,2-4.5,2c-2.4,0-4.1-2.1-4.1-5.4c0-4.2,2.1-5.8,4.2-5.8c3,0,4,2,4.8,4.5l1.1,3.5c1.1,3.3,3.2,6.1,9.1,6.1
				c4.3,0,7.2-1.3,7.2-4.7C45,1029.8,43.4,1028.4,40.5,1027.6z"/>
		</g>
	</g>
</g>
<g>
	<path fill="#FFFFFF" d="M30,1000c-16.6,0-30,13.4-30,30s13.4,30,30,30s30-13.4,30-30C60,1013.5,46.5,1000,30,1000z M30,1055.3
		c-14,0-25.3-11.3-25.3-25.3c0-14,11.3-25.3,25.3-25.3s25.3,11.3,25.3,25.3C55.3,1044,44,1055.3,30,1055.3z"/>
</g>
</svg>
