<?xml version="1.0" encoding="utf-8"?>
<!-- Generator: Adobe Illustrator 18.1.1, SVG Export Plug-In . SVG Version: 6.00 Build 0)  -->
<svg version="1.1" id="Capa_1" xmlns="http://www.w3.org/2000/svg" xmlns:xlink="http://www.w3.org/1999/xlink" x="0px" y="0px"
	 viewBox="0 0 60 60" enable-background="new 0 0 60 60" xml:space="preserve">
<path fill="#FFFFFF" d="M41.4,18.6H18.5c-2,0-3.6,1.5-3.6,3.4v16c0,1.9,1.6,3.4,3.6,3.4h22.9c2,0,3.6-1.5,3.6-3.4V22
	C45,20.1,43.4,18.6,41.4,18.6z M41.4,38.4H18.5c-0.3,0-0.5-0.2-0.5-0.4V24.2l10.3,8.7c0.2,0.2,0.5,0.3,0.8,0.3h1.7
	c0.3,0,0.5-0.1,0.8-0.3l10.3-8.7V38C42,38.2,41.7,38.4,41.4,38.4z M30,30.2l-10.1-8.5H40L30,30.2z"/>
<g>
	<path fill="#FFFFFF" d="M30,0C13.4,0,0,13.4,0,30c0,16.6,13.4,30,30,30c16.6,0,30-13.4,30-30C60,13.4,46.6,0,30,0z M30,55.3
		C16,55.3,4.7,44,4.7,30S16,4.7,30,4.7S55.3,16,55.3,30S44,55.3,30,55.3z"/>
</g>
</svg>
