<?xml version="1.0" encoding="utf-8"?>
<!-- Generator: Adobe Illustrator 18.1.1, SVG Export Plug-In . SVG Version: 6.00 Build 0)  -->
<svg version="1.1" id="Capa_1" xmlns="http://www.w3.org/2000/svg" xmlns:xlink="http://www.w3.org/1999/xlink" x="0px" y="0px"
	 viewBox="0 0 60 60" enable-background="new 0 0 60 60" xml:space="preserve">
<g>
	<polygon id="Pinboard" fill="#FFFFFF" points="33.3,31.8 39.2,25.6 33.5,27 24.5,18.7 24.5,15 15,24.6 19.3,24.5 27,33.9 
		26.1,38.9 31.7,33.2 45,45 	"/>
</g>
<path fill="#FFFFFF" d="M30,0C13.4,0,0,13.4,0,30s13.4,30,30,30s30-13.4,30-30C60,13.5,46.5,0,30,0z M30,55.4
	c-14,0-25.3-11.3-25.3-25.3S16,4.8,30,4.8s25.3,11.3,25.3,25.3C55.3,44,43.9,55.4,30,55.4z"/>
</svg>
