<?xml version="1.0" encoding="utf-8"?>
<!-- Generator: Adobe Illustrator 18.1.1, SVG Export Plug-In . SVG Version: 6.00 Build 0)  -->
<svg version="1.1" id="Capa_1" xmlns="http://www.w3.org/2000/svg" xmlns:xlink="http://www.w3.org/1999/xlink" x="0px" y="0px"
	 viewBox="-243 245 512 512" enable-background="new -243 245 512 512" xml:space="preserve">
<g>
	<path fill="#FFFFFF" d="M13,245c-141.4,0-256,114.6-256,256c0,141.4,114.6,256,256,256c141.4,0,256-114.6,256-256
		C269,359.6,154.4,245,13,245z M13,717c-119.3,0-216-96.7-216-216c0-119.3,96.7-216,216-216c119.3,0,216,96.7,216,216
		C229,620.3,132.3,717,13,717z"/>
	<path fill="#FFFFFF" d="M141,415.9c-4.3,2.6-17.2,7.7-29.3,9c7.7-4.5,19.2-19.2,22-30.9c-7.4,5.1-24.5,12.6-33,12.6c0,0,0,0,0,0
		C91.1,395.8,77.6,389,62.6,389c-29.2,0-52.8,25.5-52.8,56.9c0,4.4,0.5,8.6,1.4,12.7h0c-39.6-1.1-85.8-22.4-111.9-59
		c-16,29.9-2.2,63,16,75.1c-6.2,0.5-17.7-0.8-23.1-6.4c-0.4,19.8,8.5,46,40.7,55.6c-6.2,3.6-17.2,2.6-22,1.8
		c1.7,16.8,23.4,38.6,47.2,38.6c-8.5,10.5-37.4,29.7-73.1,23.6c24.3,15.9,52.6,25.2,82.6,25.2c85.2,0,151.4-74.4,147.8-166.1
		c0-0.1,0-0.2,0-0.3c0-0.2,0-0.5,0-0.7c0-0.3,0-0.6,0-0.9C123.1,439.3,133.5,429.2,141,415.9z"/>
</g>
</svg>
