<?xml version="1.0" encoding="utf-8"?>
<!-- Generator: Adobe Illustrator 18.1.1, SVG Export Plug-In . SVG Version: 6.00 Build 0)  -->
<svg version="1.1" id="Capa_1" xmlns="http://www.w3.org/2000/svg" xmlns:xlink="http://www.w3.org/1999/xlink" x="0px" y="0px"
	 viewBox="0 0 60 60" enable-background="new 0 0 60 60" xml:space="preserve">
<g>
	<path fill="#FFFFFF" d="M30,0C13.4,0,0,13.4,0,30c0,16.6,13.4,30,30,30s30-13.4,30-30C60,13.4,46.6,0,30,0z M30,55.3
		C16,55.3,4.7,44,4.7,30S16,4.7,30,4.7S55.3,16,55.3,30S44,55.3,30,55.3z"/>
	<path fill="#FFFFFF" d="M40.3,16.9c-3.8,0-6.8,2.5-8.1,7.1c1.4-0.7,4-1,4.2,1.3s-3.3,8.3-4.9,8.3c-1.5,0-2.7-6.8-3.1-9.9
		c-0.4-3.1-1.1-6.5-4-6.5s-6.7,4.6-9.3,6.7l1.4,1.9c0,0,1.9-1.5,2.6-1.4c1.8,0.5,3.3,7.7,4.1,10.5c0.8,2.8,1.7,8.3,5.5,8.3
		c6.2,0,16.4-15.3,16.4-20.3C45,19.5,44.1,16.9,40.3,16.9z"/>
</g>
</svg>
