<?xml version="1.0" encoding="utf-8"?>
<!-- Generator: Adobe Illustrator 17.1.0, SVG Export Plug-In . SVG Version: 6.00 Build 0)  -->
<!DOCTYPE svg PUBLIC "-//W3C//DTD SVG 1.1//EN" "http://www.w3.org/Graphics/SVG/1.1/DTD/svg11.dtd">
<svg version="1.1" id="Layer_1" xmlns="http://www.w3.org/2000/svg" xmlns:xlink="http://www.w3.org/1999/xlink" x="0px" y="0px"
	 viewBox="0 0 450 253" enable-background="new 0 0 450 253" xml:space="preserve">
<g id="LOGO">
	<g>
		<path fill="#62AEB2" d="M140.1,70.8l0.8-1.6c-7.8-4.2-15.9-6.9-24-8.1c-3.4-0.5-6.7-0.7-10.1-0.7c-26.8,0-50.7,16.1-59.6,40.1
			l8.6,3.2c7.6-20.4,28-34.1,51-34.1c2.9,0,5.8,0.2,8.8,0.6c15.6,2.2,30.5,10.7,44.4,25.2l5.1-4.9C158.3,83.2,150,76.1,140.1,70.8z"
			/>
		<path fill="#62AEB2" d="M77.3,178.1c-23.1-10.7-38-33.4-38-57.8c0-12.3,3.6-24.3,10.5-34.5c2.6-3.9,5.7-7.6,9.1-10.9l4.2,4.4
			c-3.1,3-5.9,6.3-8.3,9.8c-6.2,9.2-9.4,20-9.4,31.1c0,22.4,13.2,42.4,34.5,52.3L77.3,178.1z"/>
		<path fill="#62AEB2" d="M189.7,127.8l-2.7-6.2c-0.2-0.5-0.6-1.1-1-1.9c-4.7,8.8-29.1,51.8-69.4,57.6c-3.3,0.5-6.7,1.5-9.9,1.5
			c-9.4,0-18.4-2-26.7-5.9l-3.1,5.6c9.3,4.3,19.3,6.5,29.8,6.5c3.5,0,7.2-0.3,10.8-0.8c38.8-5.5,63.3-41.1,72.4-56.7L189.7,127.8z"
			/>
		<path fill="#E47128" d="M198.3,157.8c-7.9,10.7-16.6,20-25.9,27.5l2.2,2.8c9.2-7.5,17.8-16.6,25.7-27c16,21.9,42.7,47.8,81.3,53.3
			l0.9-6.4c-39.5-5.6-65.9-33.6-81.7-57.3C200.1,149.5,198.3,157.8,198.3,157.8z"/>
		<path fill="#E5AD24" d="M301.5,184.4c-5.1,0.3-10.3,0.1-15.5-0.6c-11.9-1.7-23.4-6.4-34.2-14.1l-3.4,4.8
			c11.6,8.2,23.9,13.3,36.7,15.1c3.8,0.6,7.7,0.8,11.5,0.8c1.6,0,3.2-0.1,4.8-0.2V184.4z"/>
		<path fill="#E47128" d="M192.8,126.5l-3.1,1.3l-2.7-6.2c-2-3.9-9.4-17.7-21.9-31l-5.1,4.9c10.9,11.4,17.5,22.7,19.8,27l9.3,16.3
			l8-4.6L192.8,126.5z"/>
		<path fill="#62AEB2" d="M296.7,179.2c-3.3,0-6.7-0.2-10-0.7c-41.5-5.9-65.8-48.1-70.3-56.5l6.4-3.4c2.6,4.8,26,47.2,64.9,52.7
			c3,0.4,6,0.6,8.9,0.6L296.7,179.2L296.7,179.2z"/>
		<path fill="#00878F" d="M354.6,104.1c-2.8-9-7.9-17.3-14.9-24c-9.2-8.8-20.8-14.4-33.7-16.2l1.2-8.2c14.6,2.1,27.8,8.5,38.3,18.5
			c8,7.7,14,17.2,17.1,27.6L354.6,104.1z"/>
		<path fill="#00878F" d="M243.4,77.6l-3.9-4.5c14.1-12.4,29.5-19.9,45.7-22.2c3.8-0.5,7.7-0.8,11.5-0.8c19.7,0,38.2,7.3,52,20.5
			l-4.1,4.3c-12.7-12.2-29.7-18.9-47.9-18.9c-3.5,0-7.1,0.3-10.7,0.8C270.9,59,256.6,66,243.4,77.6z"/>
		<path fill="#E5AD24" d="M213.2,135.5l-20.6-9.8l4.9-10.3c3.2-6.7,15.2-30,36.4-48.6l8.6-7.5l15.1,17.2l-8.6,7.5
			c-18.4,16.1-28.9,37.2-30.9,41.2L213.2,135.5z"/>
		<path fill="#00878F" d="M38.6,147.8c-3.8-8.7-5.7-18-5.7-27.5c0-19,7.7-36.8,21.6-50.1c4.9-4.7,10.4-8.6,16.3-11.8l3.4,6.3
			c-5.4,2.9-10.3,6.4-14.7,10.7C46.9,87.3,40,103.3,40,120.3c0,8.6,1.7,16.9,5.1,24.7L38.6,147.8z"/>
		<path fill="#E5AD24" d="M63.2,79.3l-4.3-4.5c12.7-12.2,29.8-18.9,48-18.9c3.6,0,7.2,0.3,10.7,0.8c8.7,1.2,17.3,4.1,25.5,8.6
			l-3,5.5c-7.6-4.1-15.5-6.8-23.4-7.9c-3.3-0.5-6.6-0.7-9.8-0.7C90.3,62.2,74.7,68.3,63.2,79.3z"/>
		<path fill="#E5AD24" d="M20.5,120.3h-3.8c0-23.4,9.4-45.4,26.6-61.8l2.6,2.7C29.5,76.9,20.5,97.9,20.5,120.3z"/>
		<path fill="#00878F" d="M171.1,55.2c-15.4-12.3-32.2-19.8-50.1-22.4c-4.7-0.7-9.4-1-14.1-1c-18.5,0-36.3,5.2-51.4,15.1l-2.8-4.3
			c15.9-10.4,34.7-15.9,54.2-15.9c4.9,0,9.9,0.4,14.8,1.1c18.8,2.7,36.5,10.6,52.5,23.4L171.1,55.2z"/>
		<path fill="#00878F" d="M206.8,88.2l-10-7.1c16-22.7,43.7-51,84.6-56.8l1.7,12.1C246.5,41.6,221.4,67.4,206.8,88.2z"/>
		<path fill="#62AEB2" d="M218.2,89.6l-7.1-5.4c14-18.5,37.9-41.7,72.1-46.6c4.4-0.6,9-1,13.4-1c11.5,0,22.7,2.1,33.2,6.2l-3.3,8.3
			c-9.4-3.7-19.5-5.6-29.9-5.6c-4,0-8.1,0.3-12.1,0.9C253.3,51,231.2,72.4,218.2,89.6z"/>
		<path fill="#62AEB2" d="M204,104.1l-9.9-4l2.9-7.2l0.3-0.4c12.8-20.3,40.9-55.2,85-61.5c4.8-0.7,9.6-1,14.4-1v10.7
			c-4.3,0-8.6,0.3-12.9,0.9C246.1,46.9,221,75,206.5,97.7L204,104.1z"/>
		<path fill="#62AEB2" d="M203.8,93.1l-5.1-6.3c-8.5-12.1-18.1-22.4-28.4-30.6l4.8-5.9c10.8,8.7,20.8,19.4,29.8,32.1l4.9,6
			L203.8,93.1z"/>
		<path fill="#E47128" d="M361.3,57.4c-17.2-16.5-40.2-25.6-64.6-25.6c-4.7,0-9.4,0.3-14.1,1l-0.7-5c4.9-0.7,9.9-1.1,14.8-1.1
			c25.8,0,50,9.6,68.2,27L361.3,57.4z"/>
		<path fill="#00878F" d="M119.7,199l-1.8-13c51.8-7.4,77.6-67.7,77.8-68.3c1.1-2.8,28.8-67.8,88.1-76.2l1.8,13
			c-51.9,7.4-77.6,67.7-77.8,68.3C206.7,125.6,179,190.6,119.7,199z"/>
		<path fill="#00878F" d="M65.3,185.9l5.7-9.8c13.9,8.1,30.1,11.1,46.7,8.7l1.6,11.2c10.8-1.5,21.4-5.3,31.4-11l-9.5-16.5
			c-7.9,4.6-16.2,7.5-24.7,8.7c-3.3,0.5-6.6,0.7-9.8,0.7c-16.5,0-31.9-6.1-43.4-17.1c-5.6-5.3-9.9-11.5-12.9-18.3l-16.3,7.2
			c3.9,8.9,9.6,17.1,16.9,24.1l-0.8,0.9C54.9,179,59.9,182.8,65.3,185.9z"/>
		<path fill="#00878F" d="M106.8,202c-22.7,0-44-8.4-60-23.7l3.6-3.8c15,14.4,35,22.3,56.4,22.3c4.1,0,8.3-0.3,12.4-0.9
			c42.7-6.1,68.5-42.2,80.1-63.3l2.9-7l4.8,2l-3.1,7.3c-12.1,21.9-39,59.6-84,66.1C115.6,201.6,111.2,202,106.8,202z"/>
		<path fill="#00878F" d="M106.8,216c-26.3,0-51.1-9.8-69.7-27.6l6.6-6.9c16.8,16.1,39.2,25,63.1,25c4.6,0,9.2-0.3,13.8-1
			c17.8-2.5,34.6-10.1,49.8-22.5l6,7.4c-16.6,13.5-35,21.8-54.5,24.6C117,215.6,111.9,216,106.8,216z"/>
		<path fill="#E5AD24" d="M121.1,208.4l-1.2-8.2c38.4-5.5,63.7-34,78.3-57c0.4-0.8,4.4-7.6,5.9-10.4l7.4,3.9
			c-1.7,3.2-5.9,10.5-6.1,10.8l-0.1,0.1C189.8,172.1,162.6,202.5,121.1,208.4z"/>
		<path fill="#62AEB2" d="M65.6,185.4c-23.9-13.9-38.1-38.2-38.1-65.1c0-3.9,0.3-7.8,0.9-11.7l5.9,0.9c-0.6,3.5-0.8,7.1-0.8,10.7
			c0,24.8,13.2,47.2,35.2,60L65.6,185.4z"/>
		<path fill="#E47128" d="M37,110l-11.3-1.8C29,87.6,40.3,69.4,57.7,57c17.7-12.6,39.6-17.8,61.9-14.7c5,0.7,10,1.9,14.9,3.5
			l-3.6,10.8c-4.2-1.4-8.5-2.4-12.9-3C78.5,48,42.9,72.8,37,110z"/>
		<path fill="#E5AD24" d="M35.5,190.1c-10.4-10-18.3-21.7-23.4-34.8l13.3-5.2c4.4,11.2,11.1,21.2,20,29.7L35.5,190.1z"/>
		<path fill="#62AEB2" d="M106.8,209.5c-24.6,0-47.8-9.2-65.2-25.8c-15.8-15.1-25.4-35.3-27-56.8l0-0.2l-0.2-6.3l8.3-0.3l0.2,6.2
			c1.5,19.4,10.2,37.6,24.5,51.3c15.8,15.1,36.9,23.5,59.4,23.5c4.3,0,8.7-0.3,13.1-0.9l1.2,8.2
			C116.4,209.1,111.6,209.5,106.8,209.5z"/>
		<path fill="#E5AD24" d="M145.1,180.4l-2.6-4.5l2.3-1.3c29.4-16.9,45.8-49.1,48.8-55.4l1.1-2.3l4.7,2.2l-1.1,2.3
			c-3.1,6.5-20.2,40-50.9,57.7L145.1,180.4z"/>
		<path fill="#00878F" d="M210,116.9c-0.3-0.6-2.1-5-5.6-11.4l1.3-0.7c-12.3-22.2-39.6-60.5-85.4-67c-4.4-0.6-9-1-13.4-1v8.9
			c4,0,8.1,0.3,12.2,0.9c4.9,0.7,9.6,1.8,14.1,3.3l-3.2,9.9c42.2,13.9,63.4,63.5,63.6,64c1.2,2.8,29.4,69,89.9,77.7l2.5-17.6
			C235.5,176.6,210.2,117.5,210,116.9z"/>
		<path fill="#E5AD24" d="M376.6,120.3h-7.1c0-19.6-8.7-38.4-23.8-51.6c-16.2-14.1-38.3-20.4-60.5-17.2l-1-7.1
			c24.2-3.5,48.3,3.4,66.1,18.9C367,77.8,376.6,98.6,376.6,120.3z"/>
		<rect x="97.8" y="90.4" fill="#E5AD24" width="19.3" height="59.9"/>
		<rect x="77.6" y="110.6" fill="#00878F" width="59.9" height="19.3"/>
		<path fill="#62AEB2" d="M394.3,129l-7.6-0.7c0.2-2.6,0.4-5.3,0.4-8c0-23.5-9.5-45.5-26.6-61.9l5.3-5.5c18.7,17.9,29,41.8,29,67.4
			C394.7,123.2,394.6,126.1,394.3,129z"/>
		<path fill="#00878F" d="M368.1,133.5l-5-1c0.8-4,1.2-8.2,1.2-12.3c0-17.3-7-33.5-19.7-45.7l3.5-3.7c13.7,13.1,21.3,30.6,21.3,49.3
			C369.4,124.6,368.9,129.1,368.1,133.5z"/>
		<path fill="#E47128" d="M359.3,134.7l-11.5-2.9c0.9-3.7,1.4-7.6,1.4-11.5c0-27.2-23.6-49.3-52.6-49.3c-2.8,0-5.7,0.2-8.6,0.6
			c-0.8,0.1-1.5,0.2-2.3,0.4l-2.1-11.7c0.9-0.2,1.8-0.3,2.7-0.4c3.4-0.5,6.9-0.7,10.3-0.7c35.6,0,64.5,27.5,64.5,61.2
			C361.1,125.2,360.5,130,359.3,134.7z"/>
		<path fill="#00878F" d="M264.1,73.6l-1.4-2.5c-27.3,15.1-43.3,44.8-46.2,50.5l-2.9,5.9l-3.1-1.5l-1.3,2.8l10.8,4.9l4.9-10.8
			c2.9-5.3,25.1-44.4,60.8-51l-1.1-5.8C277.7,67.4,270.8,69.9,264.1,73.6z"/>
		<path fill="#62AEB2" d="M296.7,204.7c-4.5,0-9-0.3-13.6-1c-20.2-2.9-38.9-12.3-55.7-27.9l7.3-7.8c15.1,14.1,31.9,22.5,49.9,25.1
			c4.8,0.7,9.6,0.9,14.4,0.8l0.3,10.7C298.4,204.7,297.5,204.7,296.7,204.7z"/>
	</g>
</g>
<text transform="matrix(1 0 0 1 309.6056 164.7969)" fill="#00878F" font-family="'nevis-Bold'" font-size="32.6715">Arduino</text>
<text transform="matrix(1 0 0 1 309.6056 196.0845)" fill="#8C7965" font-family="'nevis-Bold'" font-size="32.6715">Package</text>
<text transform="matrix(1 0 0 1 309.6056 225.3096)" fill="#E47128" font-family="'nevis-Bold'" font-size="32.6715">Manager</text>
</svg>
