<?xml version="1.0" encoding="utf-8"?>
<!-- Generator: Adobe Illustrator 15.1.0, SVG Export Plug-In  -->
<!DOCTYPE svg PUBLIC "-//W3C//DTD SVG 1.1//EN" "http://www.w3.org/Graphics/SVG/1.1/DTD/svg11.dtd" [
	<!ENTITY ns_flows "http://ns.adobe.com/Flows/1.0/">
]>
<svg version="1.1"
	 xmlns="http://www.w3.org/2000/svg" xmlns:xlink="http://www.w3.org/1999/xlink" xmlns:a="http://ns.adobe.com/AdobeSVGViewerExtensions/3.0/"
	 x="0px" y="0px" width="241px" height="61px" viewBox="-0.001 -0.5 241 61"
	 overflow="visible" enable-background="new -0.001 -0.5 241 61" xml:space="preserve">
<defs>
</defs>
<path fill-rule="evenodd" clip-rule="evenodd" fill="#FFFFFF" d="M7.469,1.4c-11.48,5.27-8.73,46.27,1.49,54.65
	c3.64,2.98,11.73,4.54,22.65,3.74c0.35-0.54,0.69-1.09,1.02-1.65c4.44-7.42,7.54-15.55,10.94-23.11l0.73-1.6
	c-5.65,3.33-16.74,9.08-26.89,10.4c-5.49,0.72-15.92-12.48-9.51-13.01l39.19-3.2c2.33-4.52,5.03-8.84,8.64-12.42
	c1.55-1.54,3.37-2.98,5.4-4.04C45.689,3.81,27.959,0,16.619,0C12.669,0,9.499,0.46,7.469,1.4z M22.579,24.88
	c-3.5-1.25-4.73-15.88-0.76-14.07l24.91,11.43c0,0-0.78,2.92-2.27,3.01c-1.36,0.08-7.07,0.39-12.42,0.39
	C28.019,25.64,24.199,25.46,22.579,24.88z M58.429,20.78c-1.74,3.52-3.17,7.21-4.62,10.95c-3.09,7.92-6.32,16.15-10.75,23.9
	c-0.55,0.98-1.14,1.94-1.74,2.9c16.91-3.13,37.36-12.11,40.47-25.51c1.71-7.4-7.31-14.94-17.53-20.3
	C61.629,14.93,59.869,17.87,58.429,20.78z"/>
<path fill-rule="evenodd" clip-rule="evenodd" fill="#FFFFFF" d="M124.299,18.4v28c0,1.7,1.05,2.09,2.36,2.09s2.3-0.39,2.3-2.09
	V15.64c0-1.7-1.18-2.49-2.82-2.49h-14.23c-1.11,0-1.24-0.33-1.24-1.31V9.8c0-4.59,2.09-6.22,9.7-6.22h6.69
	c1.31,0,1.57-0.53,1.57-1.45c0-0.65-0.13-1.24-1.12-1.57c-0.98-0.33-2.88-0.53-7.67-0.53c-9.7,0-13.83,2.96-13.83,9.51v2.3
	c0,0.98-0.13,1.31-1.24,1.31h-3.48c-1.44,0-1.77,0.72-1.77,1.84c0,1.31,0.33,1.9,1.77,1.9h3.54c1.05,0,1.18,0.46,1.18,1.44V46.4
	c0,1.7,1.05,2.09,2.43,2.09c1.24,0,2.23-0.39,2.23-2.09V18.26c0-1.05,0.26-1.37,1.24-1.37h11.08
	C123.839,16.89,124.299,17.35,124.299,18.4z M135.179,17.15V46.4c0,1.7,1.05,2.09,2.43,2.09c1.31,0,2.23-0.39,2.23-2.09V19.64
	c0-2.95,1.44-3.41,6.75-3.41c1.64,0,2.75,0.2,3.87,0.2c0.98,0,1.44-0.72,1.44-1.9c0-1.45-0.59-2.04-4-2.04
	c-2.82,0-7.15,0.4-10.42,1.25C135.839,14.13,135.179,14.79,135.179,17.15z M156.219,26.13v-0.59c0-6.16,3.15-9.37,9.44-9.37
	c5.64,0,7.94,2.88,7.94,8.59c0,3.27-0.73,3.6-5.18,3.6h-8.72C156.809,28.36,156.219,28.1,156.219,26.13z M158.519,31.77l11.99-0.33
	c6.36-0.13,7.61-0.78,7.61-6.62c0-7.74-3.74-12.33-12.33-12.33c-7.99,0-14.22,3.61-14.22,15.81v4.26c0,12,4.78,16.33,15.6,16.33
	c3.93,0,7.01-0.53,8.92-1.38c0.72-0.39,0.91-0.98,0.91-1.77c0-1.18-0.78-1.77-1.96-1.44c-1.51,0.39-4.33,0.85-7.34,0.85
	c-8.72,0-11.48-3.48-11.48-11.08C156.219,32.36,156.489,31.84,158.519,31.77z M204.339,4.82v34.62c0,5.51,0.72,9.18,6.75,9.18
	c1.57,0,3.15-0.19,3.8-0.45c0.79-0.27,0.99-0.79,0.99-1.58c0-0.85-0.27-1.38-1.58-1.38h-1.5c-3.09,0-3.81-1.37-3.81-4.98V3.31
	c0-1.77-0.26-2.23-1.57-2.49c-2.16-0.39-5.44-0.79-9.24-0.79c-8.85,0-12.46,2.69-12.46,9.84v1.97c0,0.98-0.13,1.31-1.24,1.31h-3.48
	c-1.44,0-1.77,0.72-1.77,1.84c0,1.31,0.33,1.9,1.77,1.9h3.54c1.05,0,1.18,0.46,1.18,1.44V46.4c0,1.7,1.05,2.09,2.43,2.09
	c1.24,0,2.23-0.39,2.23-2.09V18.26c0-1.05,0.26-1.37,1.24-1.37h4.85c1.44,0,1.77-0.59,1.77-1.9c0-1.12-0.33-1.84-1.77-1.84h-4.85
	c-1.11,0-1.24-0.33-1.24-1.31v-1.9c0-4.53,0.98-6.36,8.12-6.36C203.549,3.58,204.339,3.97,204.339,4.82z M218.629,60.03
	c6.68,0,9.31-4.78,11.54-11.21c1.9-5.31,10.35-31.47,10.35-34.03c0-0.99-0.78-1.9-2.36-1.9c-1.11,0-1.83,0.26-2.23,1.9
	c-1.44,5.9-5.63,20.85-7.8,28c-0.39,1.11-0.78,1.18-1.11,1.18s-0.79-0.07-1.12-1.18c-3.08-9.44-5.57-18.69-7.86-27.94
	c-0.4-1.64-1.18-1.96-2.36-1.96c-1.58,0-2.43,0.91-2.43,1.9c0,2.36,5.97,21.51,8.79,29.18c1.44,4.06,3.08,3.67,3.08,5.44
	c0,2.3-2.23,6.89-6.89,6.89h-2.22c-1.12,0-1.51,0.59-1.51,1.5C214.499,59.51,215.419,60.03,218.629,60.03z"/>
</svg>
