<svg version="1" xmlns="http://www.w3.org/2000/svg" width="1000" height="1000" viewBox="0 0 750.000000 750.000000"><path d="M0 375v200h750V175H0v200zm723-165.5v6.5H27v-13h696v6.5zm-542.4 51.2c14.6 10.8 26.9 20.4 27.4 21.3.8 1.5 82 206.2 87.6 220.7l2.4 6.3h-41.5l-25-19.6-25-19.5-2.9-6.9-2.8-7h-43.3c-40.3 0-43.3.1-44 1.7-.4 1-4.7 12.1-9.5 24.8-4.9 12.6-9.1 23.8-9.5 24.7-.6 1.6-2.4 1.8-16.9 1.8H61.5L44 488.9c-9.6-11.1-17.4-20.7-17.4-21.3.1-.6 19.9-51.1 44.1-112.1 24.2-61.1 44.2-111.8 44.6-112.8.6-1.5 2.5-1.7 19.7-1.7h19l26.6 19.7zm161.1.6l19.2 20.2.1 76.2V434h65.8l19.1 19.9 19.1 19.9V509H325.3l-18.6-19.7-18.7-19.8V241h34.5l19.2 20.3zm201-.4c27.8 19.9 27.8 19.9 32.3 27.4 2.5 4.1 4.8 7.3 5.1 7.1.3-.2 8.2-12.5 17.5-27.4l16.9-27 20.9.3 20.9.2 13.9 20.6 14 20.6-27.1 41.7c-14.9 22.9-27.2 42-27.3 42.4-.2.5 20.5 32.4 46 71 25.4 38.5 46.2 70.4 46.2 70.7 0 .3-10.7.5-23.8.5h-23.7l-27.9-19.5-27.9-19.4-14-22.1c-9-14-14.4-21.6-14.8-20.8-.5.7-12 19.3-25.7 41.3l-24.9 40-19.9.2-19.9.2-15-19c-8.2-10.5-15.4-19.8-15.8-20.8-.7-1.4 7.7-14.7 36.4-58.2 20.5-31 37.3-57.1 37.3-57.9 0-.8-16.1-26.1-35.7-56.2s-35.7-55-35.7-55.3c0-.3 9.9-.5 22-.5h21.9l27.8 19.9zM723 537.5v6.5H27v-13h696v6.5z"/><path d="M160.5 252.7c2.6 2.6 43.8 33.7 43 32.3-.3-.5-9.9-8-21.3-16.6-23.9-18.1-24.4-18.5-21.7-15.7zM162.7 259.5c.6 1.8 44.3 35 44.3 33.8 0-1.7-2.1-3.4-22-18.4-23.4-17.8-23.2-17.6-22.3-15.4zM166.2 269.1c.8 2.3 6.3 7 22.9 19.5 12.1 9 21.9 15.9 21.9 15.4 0-2.9-3.7-6.2-24-21.5-19-14.3-21.7-16-20.8-13.4zM170 278.3c0 .3.9 2.5 1.9 4.9 1.6 3.9 4.6 6.5 24 21.2l22.1 16.7-2.1-5.3c-1.1-2.9-2.3-5.6-2.7-5.9-.4-.4-9.7-7.3-20.7-15.4-11-8.1-20.6-15.2-21.2-15.7-.7-.6-1.3-.8-1.3-.5zM136.2 294.9c1.8 1.6 3.5 2.7 3.8 2.4.6-.5-5-5.3-6.3-5.3-.4 0 .7 1.3 2.5 2.9zM176 293.2c0 1.1 5.3 13.4 6.3 14.6.6.8 10.1 8.2 21.1 16.4 11.1 8.3 20.7 15.6 21.4 16.1.8.6.5-1.1-.9-4.4-1.1-3-2.5-6.4-2.9-7.5-.5-1.2-10.2-9.3-21.7-17.9-11.4-8.7-21.4-16.2-22-16.8-.7-.5-1.3-.7-1.3-.5zM132 295.8c0 1 10.3 10.2 11.5 10.2.3 0 .2-.6-.2-1.4-1.2-2.1-11.3-9.9-11.3-8.8zM130.1 300.2c.4 1.6 16 15.1 16.6 14.4.9-.9-1.3-3.5-5.9-7.1-2.8-2.2-6.4-5.1-8-6.4-2.2-1.7-2.9-2-2.7-.9zM128 305.3c0 .8 5.2 5.8 11.5 11.1 6.4 5.4 11.3 10.2 10.9 10.7-.7 1.3-1.4.8-12.4-8.6-11.6-9.9-12-10.2-12-7.7 0 1.3 3.7 5.2 10 10.7 9.3 8.1 11.4 10.5 9.1 10.5-.6 0-5.4-3.8-10.8-8.5-8.7-7.6-9.9-8.3-10.7-6.6-.6 1.5 0 2.7 3.5 5.8 2.4 2.1 6.7 5.9 9.5 8.5 4.7 4.2 5.6 5.8 3.3 5.8-.5 0-4.7-3.5-9.4-7.7-6.8-6-8.8-7.4-9.6-6.2-1.6 2.5-1.1 3.3 7.2 11 10.6 9.7 8.9 11.5-1.8 2l-7.8-6.9-1.2 2.6c-1.1 2.6-.8 3 5.9 9.3 8.7 8.2 7.5 10.5-1.4 2.5-3.4-3-6.5-5.3-6.9-5-.4.2-1.1 1.8-1.4 3.6-.7 2.8-.3 3.5 4.6 7.8 3.4 3 5 5.1 4.5 5.9-.6.8-2.2-.1-5.6-3.3-2.7-2.6-5.2-4.6-5.4-4.6-.3 0-1.3 1.7-2.2 3.7l-1.5 3.8 4.1 3.7c4.7 4.2 3.7 6.4-1.1 2.4-1.7-1.4-3.4-2.6-3.8-2.6-.4 0-1.4 2-2.3 4.4-1.5 4.2-1.5 4.4.4 6.4 2.6 2.6 1.4 5.1-1.2 2.7-1.8-1.6-2-1.5-3.3 1.7-3.6 8.6-5 7.8 14 7.8h16.9l10.6-26.6 10.7-26.5-1.7-3.9c-1.1-2.5-5-6.6-11.9-12.4-5.6-4.7-10.4-8.6-10.7-8.6-.3 0-.6.6-.6 1.3zM184.4 314.6c.3 1.1 14.3 36.3 31 78.4l30.4 76.5 21.8 16.4c12.9 9.7 21.5 15.6 21.2 14.5-.3-1.1-12.8-32.7-27.8-70.4-14.9-37.7-28.5-71.9-30.1-76.1l-2.9-7.6-22.1-16.8c-12.2-9.2-21.8-15.9-21.5-14.9zM146.7 358.8c-4.8 11.9-8.7 22.1-8.7 22.5 0 .4 8 .7 17.9.7h17.9l-8.8-22c-4.8-12.1-8.9-22.2-9.2-22.5-.2-.3-4.3 9.3-9.1 21.3zM87.1 418.7c5.6 7.2 26.1 31.3 26.6 31.3.3 0-1.5-2.4-3.9-5.3-2.4-2.8-8.6-10.3-13.8-16.5-5.1-6.1-9.5-11.2-9.8-11.2-.2 0 .2.8.9 1.7zM103.7 433.2c7.5 9 14.3 16.5 15.2 16.7.8.2-.5-2.1-3-5-2.5-3-8.7-10.5-13.9-16.7-5.1-6.1-9.9-11.2-10.6-11.2-.8 0 4.8 7.3 12.3 16.2zM109.6 433.2c8 9.6 14.5 16.4 15.7 16.6 2.5.5 3.7 2.1-13.1-18.1-8.4-10-12.9-14.7-14.3-14.7-1.5 0 1.2 3.8 11.7 16.2zM104.7 418.4c.4.7 6.5 8.2 13.6 16.5 10.4 12.3 13.2 15.1 15.3 15.1 3.1 0 4.5 2-12.4-18.3-9.8-11.8-12.8-14.7-14.8-14.7-1.8 0-2.3.4-1.7 1.4zM114.1 418.7c.8 1 6.9 8.4 13.7 16.5 11.6 14 12.5 14.8 15.9 14.8 4.3 0 5.1 1.3-11.2-18.4-11.6-14-12.1-14.5-15.9-14.5-3.5-.1-3.7 0-2.5 1.6zM125.2 418.7c.8 1 7 8.4 13.7 16.5l12.3 14.8h5c4.7 0 4.9-.1 3.7-1.8-.8-.9-6.9-8.3-13.7-16.5L133.9 417h-5.1c-4.8 0-5 .1-3.6 1.7zM139.2 418.7c.8 1 7 8.4 13.7 16.5l12.3 14.8h10l-1.9-2.4c-1-1.4-7-8.8-13.3-16.5l-11.5-14h-5.4c-5.1-.1-5.3 0-3.9 1.6zM153.2 418.7c.8 1 7 8.4 13.7 16.5 11.5 13.9 12.5 14.8 15.8 14.8 1.9 0 3.3-.4 3.1-.9-.1-.4-6.1-7.8-13.3-16.4-12.6-15.2-13.1-15.6-16.9-15.6-3.6-.1-3.8 0-2.4 1.6zM164.1 418.7c.9 1 7.1 8.4 13.8 16.5 10.8 12.9 12.7 14.8 15.2 14.8 2.9 0 2.4-.7-10.7-16.3-11.6-13.7-14.2-16.3-16.8-16.5-2.9-.3-3-.3-1.5 1.5zM173.7 419.2c1.1 1.3 6.6 7.9 12.3 14.8 5.7 6.9 10.7 12.9 11.2 13.5.5.5.2-1-.8-3.5-2.4-5.9-20.1-27-22.8-27-1.9 0-1.9 0 .1 2.2zM185.1 424.2c3.4 4 6.4 7.5 6.7 7.8.2.3-.3-1.1-1.3-3-2.4-4.7-8.6-12-10.3-12-.7 0 1.5 3.3 4.9 7.2zM83 422.4c-.9 2.5-.3 3.6 10.5 16.4 6.3 7.5 11.5 14.1 11.5 14.5 0 2.5-3.9-1.1-13-12.1-9.4-11.2-12-13.7-12-11.3 0 .5-.2 1.5-.5 2.3-.3.7 3.5 6.2 8.5 12.3 4.9 6 9 11.3 9 11.7 0 2.5-3.5-.5-10.5-9.2-4.4-5.4-8.3-9.9-8.6-9.9-.4-.1-1 1.1-1.3 2.5-.6 2.2.3 3.9 5.5 10.3 8.5 10.3 8.1 9.8 6.6 10.4-.8.3-3.9-2.7-7.7-7.5l-6.5-8-1.1 2.8c-1.1 2.7-.9 3.3 3.8 8.8 3.4 4.1 4.6 6.2 3.9 6.9-.6.6-1.2.9-1.4.6-4.6-6-8.1-9.8-8.7-9.4-2 1.2-1.7 4.7.6 7.4 2.5 3 3.1 5.1 1.5 5.1-.5 0-1.9-1.2-3-2.6l-2.1-2.7-1.6 3.9c-2 4.7-2.7 3.2 12.4 22.7l11.5 14.9 9.4-24.3c5.1-13.3 9.6-25.2 9.8-26.3.4-1.6-2.5-5.7-11.6-16.6-6.6-8-12.5-14.9-13-15.4s-1.3.2-1.9 1.8zM36.6 472.2c.4.7 6.8 8.2 14.2 16.5 8.7 10 14.1 15.3 15.3 15.3 3 0-24.5-32.4-27.8-32.8-1.9-.3-2.3 0-1.7 1zM57.6 487.2c7.6 9.1 14.5 16.4 15.6 16.6 1.1.2 1.9 0 1.7-.5-.2-.5-6.2-8-13.4-16.6-10-12.2-13.4-15.7-15.3-15.7-2 0-.3 2.4 11.4 16.2zM53.7 472.4c2.5 4.3 26 31.6 27.1 31.6.9 0 .2-1.5-2-4.3-1.9-2.3-7.8-9.7-13.2-16.5-5.4-6.7-10.5-12.2-11.3-12.2-.9 0-1.1.5-.6 1.4zM60 471.6c0 .3 5.7 7.6 12.7 16.2 6.9 8.6 12.8 15.9 13 16.1.2.2.5.2.7 0 .7-.7-24.3-32.9-25.5-32.9-.5 0-.9.3-.9.6zM218 471.5c0 1.3 41.5 32.5 43.2 32.5 1.3 0-6.1-6.3-19.2-16.5-18.4-14.3-24-18-24-16zM226.1 471.4c3.3 3.3 42.6 32.6 43.7 32.6 2.1 0 2.8.6-20.7-17.4C237.9 478 228 471 227.2 471c-.8 0-1.3.2-1.1.4zM235.1 472.3c22.5 17.3 41.4 31.3 42.7 31.5 2.4.5 2.3.5-21-17.1-11.4-8.7-21.3-15.7-22-15.7-.9.1-.9.4.3 1.3zM242 471.4c0 .9 43 32.9 43.5 32.5.4-.4-40.7-31.8-42.7-32.7-.5-.2-.8-.1-.8.2zM326 253.5c1.3 1.4 2.6 2.5 2.8 2.5.3 0-.5-1.1-1.8-2.5s-2.6-2.5-2.8-2.5c-.3 0 .5 1.1 1.8 2.5zM324.2 257.2c.4 2.4 31.8 35.1 31.8 33.3 0-.9-5.7-7.5-12.6-14.8-19.2-20-19.6-20.4-19.2-18.5zM340.5 269c4.9 4.9 9.2 9 9.5 9 .2 0-3.6-4.1-8.5-9-4.9-5-9.2-9-9.5-9-.2 0 3.6 4 8.5 9zM324 265.5c0 1.8 4.2 6.8 15.8 19 14.1 14.9 15.7 16.3 16 14 .3-2.1-2.3-5.3-15.4-19-8.6-9.1-15.8-16.5-16-16.5-.2 0-.4 1.1-.4 2.5zM324 276.8l.1 4.7L340 298l15.9 16.5.1-4.4c0-4.9.6-4.1-21.2-26.8L324 272v4.8zM353 282.4c0 .2.8 1 1.8 1.7 1.5 1.3 1.6 1.2.3-.4s-2.1-2.1-2.1-1.3zM324 292.3l.1 7.2L340 316l15.9 16.5v-7l.1-7-16-16.7-16-16.7v7.2zM324.1 314v10.5L340 341l15.9 16.5.1-10.5v-10.5L340 320l-15.9-16.5V314zM324.1 381.2L324 434h32v-72.5L340.1 345l-16-16.5v52.7zM429.1 457.5l-.1 13 15.5 16 15.4 16v-13l.1-13-15.5-16-15.4-16v13zM312.5 487.5l15.8 16.5h12.9l-15.9-16.5-15.8-16.5h-12.7l15.7 16.5zM314 471.6c0 .3 6.9 7.7 15.3 16.5l15.2 15.9h5.3c3 0 5.2-.4 5-.9-.1-.4-7.1-7.9-15.4-16.5L324.3 471h-5.1c-2.9 0-5.2.3-5.2.6zM343.7 487.5l15.8 16.5h9.9l-5.9-6.3c-25.4-26.6-25.6-26.7-30.8-26.7h-4.9l15.9 16.5zM352.7 482.7c19.3 20.5 20.5 21.5 24.8 21.1l3.7-.3-15.2-16c-14.9-15.7-15.3-16-19.8-16.3l-4.5-.3 11 11.8zM369.6 487.5c14.2 14.8 16.1 16.5 19.1 16.5 1.8 0 3.3-.3 3.3-.6s-6.9-7.7-15.2-16.5c-14.5-15.1-15.4-15.9-19.1-15.9h-3.9l15.8 16.5zM367.2 472.8c.7 1 7.6 8.5 15.3 16.5 12.6 13.2 14.3 14.7 17.3 14.7 3.3 0 3.1-.3-12.4-16.5-13.2-13.9-16.2-16.5-18.6-16.5-2.6 0-2.8.2-1.6 1.8zM378.6 474.2c1.5 1.8 8.5 9.3 15.5 16.6 10.7 11.1 13.3 13.3 15.4 13 2.3-.3 1-1.9-13.1-16.6-12-12.5-16.1-16.2-18.1-16.2h-2.5l2.8 3.2zM395.7 482.7c16.7 17.8 20.8 21.5 22.9 21.1 2.7-.5-27.8-32.2-31.4-32.6-2.1-.3-.7 1.6 8.5 11.5zM408.6 487.5c9.8 10.2 16.6 16.5 17.8 16.5 1.5 0 .6-1.4-3.9-6.3-16.4-17.5-25.9-26.7-27.7-26.7-1.4 0 2.8 5 13.8 16.5zM413.8 484.7c16.2 17.2 18.8 19.6 20.1 19.2 1.5-.5-29.7-32.9-31.6-32.9-.8 0 4.3 6.2 11.5 13.7zM418.7 482.6c14.5 15.4 21.1 21.9 21.8 21.2.8-.8-29.3-32.2-31.3-32.7-.9-.2 3.4 5 9.5 11.5zM429.6 487.5c8.6 9.1 16.2 16.5 16.8 16.5 1.1 0-2.9-4.3-20.4-22.3-5.7-5.9-10.9-10.7-11.3-10.7-.5 0 6.2 7.4 14.9 16.5zM433.8 485.7c14.4 15.2 21.2 21.8 15.3 14.8-5.7-6.7-27.8-29.5-28.6-29.5-.4 0 5.6 6.6 13.3 14.7zM440.5 487.2c8.7 9.3 16 16.8 16.3 16.8.6 0-20.7-22.6-26.9-28.5-2.9-2.8 1.9 2.5 10.6 11.7zM654.6 251.2c1.9 3.1 18.6 25.8 19 25.8.3 0-3.7-6.1-8.8-13.5-5.1-7.4-9.6-13.5-10.1-13.5-.4 0-.5.6-.1 1.2zM651.8 254.1c-.4 1.2 22.6 31.9 23.8 31.9.8 0-.1-1.3-11.5-17-12.5-17.3-11.8-16.5-12.3-14.9zM525.9 256.2c1.9 2.4 41.1 30.9 41.1 29.9 0-.5-8-6.6-17.7-13.6-9.8-7.1-19.4-14-21.3-15.4-2-1.5-2.9-1.8-2.1-.9zM648.6 258.7c-.3.3-.6 1-.6 1.4 0 1 24 29.5 24.5 29.1 1.1-.5-.1-2.3-10.6-15.9-11.3-14.7-12.2-15.7-13.3-14.6zM645 264.5c-1 1.3-1 1.8.2 3.3 12.6 14.8 24.3 27.1 25.1 26.3 1.2-1.2 1.8-.2-11.7-16.6-13.3-16.1-12-14.9-13.6-13zM532.7 267.8c1.3 2.2 38.1 29.8 41.6 31.1.6.2.1-1-1.1-2.6-1.7-2.5-40.2-31.3-41.7-31.3-.2 0 .3 1.2 1.2 2.8zM640.6 271.1c-1.4 2.1-.9 2.8 11.7 16 11.5 12.1 13.4 13.7 14.4 12.2 1-1.3.8-2.1-1.1-4.3-5.2-6.2-22.8-26-23.1-26-.2 0-1.1 1-1.9 2.1zM635.6 278.8l-1.5 2.9 13.3 13.2c13.4 13.4 13.6 13.5 16 9.3.5-.8-3.8-6-12-14.5-7.1-7.2-13.1-13.3-13.5-13.5-.4-.2-1.5 1-2.3 2.6zM542.5 283.6c2.1 3.3 7.8 12.3 12.7 20.1 4.9 7.9 9.3 14.5 9.8 14.8.7.4 10-13.3 10-14.8 0-.5-33.7-24.9-35.3-25.6-.5-.2.8 2.3 2.8 5.5zM631.4 285.2c-.4.7-1.4 2.3-2.1 3.4-1.3 2-.6 2.9 12.4 14.9l13.7 12.7 1.8-2.2c1-1.2 1.8-2.7 1.8-3.4 0-.6-3.9-5-8.7-9.6-16.7-16.2-18-17.3-18.9-15.8zM623.6 297.2c-3 5.1-4.5 3.1 13.4 18.1l12.4 10.6 2.5-3.7 2.4-3.6-5-4.5c-2.8-2.6-9.1-8.3-14.1-12.9l-9-8.3-2.6 4.3zM617.6 306.5c-5.3 8.2-6.4 6 9.9 19.1 8 6.4 14.7 11.5 14.9 11.3.2-.2 1.5-2.3 2.9-4.5l2.6-4.2-12.7-10.8c-17.6-15-15.7-13.9-17.6-10.9zM607.6 321.7c-2 3.1-3.6 6-3.6 6.3 0 .6 27.4 21.1 29.1 21.8.6.3 6.9-8.8 6.9-10.1 0-.3-5.7-5.2-12.7-10.8-7.1-5.6-13.5-10.8-14.4-11.6-1.5-1.3-2.1-.8-5.3 4.4zM597.5 337.2c-2.2 3.4-4 6.6-4 7 0 .4 6.8 5.4 15 11.2l15 10.4 4.3-6.5 4.2-6.6-14.6-10.9c-8.1-5.9-14.9-10.8-15.3-10.8-.3 0-2.4 2.8-4.6 6.2zM589.6 349.5c-.9 1.3-1.6 2.9-1.6 3.4s3.5 6.4 7.9 13.1l7.8 12.1 21.7 14.1c11.9 7.7 21.8 13.9 22 13.7.2-.2-5-8.6-11.5-18.5L624 369.3l-15.9-11.2C599.3 352 592 347 591.7 347c-.3 0-1.2 1.1-2.1 2.5zM609.1 385.7c.2.6 12.7 19.7 27.7 42.6l27.4 41.5 22.8 15.6c12.6 8.6 23.1 15.6 23.4 15.6.3 0-12.5-19.6-28.3-43.6l-28.9-43.7-20.9-13.6c-25.1-16.5-23.7-15.6-23.2-14.4zM560 394.3c0 .1 3.5 3.6 7.8 7.7l7.7 7.5-7.5-7.8c-6.9-7.1-8-8.2-8-7.4zM570 409.9c6.9 7.3 12.7 13.7 12.8 14.2.7 1.8-2.7.8-4.2-1.2-2.4-3.5-21.9-23-22.4-22.5-.2.3 5 6.3 11.6 13.3 7 7.3 11.7 13 11.1 13.4-.9.5-11.9-10.1-21.7-21.1-2-2.2-3.2-2.9-3.2-2 0 .9 5 6.8 11 13.2 7.2 7.6 10.6 11.9 9.9 12.4-.8.4-5.2-3.5-11.7-10.4-5.7-6.2-10.8-11.2-11.3-11.2-2.5 0 0 3.4 9.3 12.7 7.3 7.3 9.9 10.6 9.2 11.3-.8.8-4-2-11.3-9.7-7.8-8.3-10.4-10.5-11.1-9.4-.6 1.1 1.7 4.1 8.6 11.4 5.2 5.5 9.4 10.4 9.4 10.9 0 2.1-2.6.1-11.1-8.7-6.6-6.8-9.5-9.2-10.1-8.3-1.3 2.2-1.1 2.6 7.3 11.3 5.2 5.4 7.8 8.8 7.3 9.6-.5.9-3.4-1.6-9-7.7-7.9-8.5-8.3-8.8-9.7-6.9-1.4 1.8-1 2.5 5.8 9.9 4.1 4.4 7.1 8.4 6.8 8.9-.3.5-3.8-2.3-7.7-6.2-3.9-3.9-7.5-7.1-7.8-7.1-.4 0-1.2.9-1.8 2-1 1.8-.3 3 4.9 8.8 3.3 3.7 5.5 6.9 5 7.1-.6.2-3.8-2.3-7-5.5-6.2-6.2-6.1-6.1-8.9-1.3-.7 1.2.2 2.6 3.5 5.9 4.1 4 5.7 7 3.8 7-.4 0-2.8-2-5.3-4.5l-4.6-4.6-1.9 3.5-1.9 3.5 2.9 3.1c1.9 2 2.6 3.3 1.9 4-.7.7-1.8.2-3.4-1.5-1.3-1.4-2.7-2.5-3.1-2.5-.4 0-1.7 1.6-3 3.6-1.9 3.1-2 4-1 5.7 1.2 1.8 1.1 1.9-1.2 1.3-2-.5-2.7-.1-3.7 2.3-1.1 2.7-.7 3.5 10.9 19.1l12 16.2 4.4-6.9c2.3-3.7 13.4-21.6 24.6-39.6l20.3-32.8-12.8-13.2c-7.1-7.3-13.3-13.4-13.9-13.6-.5-.2 4.6 5.5 11.5 12.8zM581.5 417c2.7 2.7 5.1 5 5.4 5 .3 0-1.7-2.3-4.4-5-2.7-2.8-5.1-5-5.4-5-.3 0 1.7 2.2 4.4 5zM477.7 472.2c.5.7 6.5 8.2 13.2 16.5 11.5 14.5 12.4 15.3 15.6 15.3h3.5l-13.2-16.5c-12.4-15.6-13.4-16.5-16.6-16.5-2.6 0-3.2.3-2.5 1.2zM488.2 471.8c.2.5 5.9 7.9 12.7 16.5 8 10.1 13.1 15.7 14.3 15.7 1 0 1.8-.3 1.8-.6s-5.7-7.7-12.6-16.5c-8.7-11-13.2-15.9-14.6-15.9-1.1 0-1.8.4-1.6.8zM508.1 487.5c7.2 9.1 13.8 16.5 14.6 16.5.9 0-1-3.2-4.9-8.3-3.5-4.5-9.3-11.9-12.8-16.5-3.8-4.9-7-8.2-8.1-8.2-1.4 0 1.8 4.6 11.2 16.5zM514.6 487.2c6.9 9 13 16.5 13.6 16.7.7.2-.1-1.4-1.8-3.6-15.7-21.1-22.1-29.2-23.1-29.2-.7-.1 4.4 7.2 11.3 16.1zM508.6 472.2c1.6 2.6 21.7 29.4 23.2 30.8 1.8 1.7.6 0-13.2-18.8-5.4-7.2-10-13.2-10.2-13.2-.3 0-.2.6.2 1.2zM631.6 471.9c.5.5 10.9 7.9 23.2 16.6 21 14.7 22.5 15.6 26.4 15.3l4.1-.3-24.4-16.3c-17.7-11.7-25.3-16.2-27.4-16.2-1.7 0-2.5.4-1.9.9zM666.2 487.4c13.6 9.1 25.8 16.6 27 16.6 3 0-44.8-32.2-48.7-32.7-2.1-.3 4.8 4.7 21.7 16.1zM652.6 471.9c3.3 2.9 48 32.1 49.2 32.1.9 0-9.4-7.4-22.8-16.5S653.9 471 653.1 471c-.9 0-1.1.3-.5.9zM665.6 475.1c11.4 8 32.4 21.9 32.4 21.5 0-.6-36.7-25.6-37.6-25.6-.4 0 1.9 1.9 5.2 4.1zM704.5 501.4c1.7 1.4 3.4 2.6 3.9 2.6 1.1 0 1.1 0-3.4-2.9l-3.5-2.3 3 2.6z"/></svg>