<?xml version="1.0" encoding="utf-8"?>
<!-- Generator: Adobe Illustrator 18.1.1, SVG Export Plug-In . SVG Version: 6.00 Build 0)  -->
<svg version="1.1" id="Layer_1" xmlns="http://www.w3.org/2000/svg" xmlns:xlink="http://www.w3.org/1999/xlink" x="0px" y="0px"
	 viewBox="0 0 1000 1000" enable-background="new 0 0 1000 1000" xml:space="preserve">
<g>
	<g>
		<path fill="#FFFFFF" d="M417.2,590.6v60.9L200,557.8v-52.3l217.2-94.5v61.7l-151.6,58.6L417.2,590.6z"/>
		<path fill="#FFFFFF" d="M552.3,410.2l-60.9,249.2c-2.3,8.6-3.9,14.8-5.5,19.5s-3.9,8.6-7,10.9c-3.1,2.3-7.8,3.9-13.3,3.9
			c-14.8,0-21.9-6.2-21.9-18.8c0-3.1,1.6-11.7,4.7-25l60.2-249.2c3.1-13.3,6.2-22.7,9.4-27.3c3.1-4.7,8.6-7,17.2-7
			c7,0,12.5,1.6,16.4,5.5s5.5,8.6,5.5,14.1C556.2,389.8,554.7,398.4,552.3,410.2z"/>
		<path fill="#FFFFFF" d="M800,557.8l-217.2,94.5v-60.9L734.4,532L582,473.4v-60.9l217.2,93.8L800,557.8L800,557.8z"/>
	</g>
	<path fill="#FFFFFF" d="M939.8,60.2H60.2C26.6,60.2,0,86.7,0,120.3v760.2c0,32.8,26.6,60.2,60.2,60.2h879.7
		c32.8,0,60.2-26.6,60.2-60.2V120.3C1000,86.7,973.4,60.2,939.8,60.2z M789.8,100c21.9,0,39.8,18,39.8,39.8s-18,39.8-39.8,39.8
		c-21.9,0-39.8-18-39.8-39.8S768,100,789.8,100z M679.7,100c21.9,0,39.8,18,39.8,39.8s-17.2,39.8-39.8,39.8s-39.8-18-39.8-39.8
		S657.8,100,679.7,100z M939.8,879.7H60.2V220.3h879.7C939.8,220.3,939.8,879.7,939.8,879.7z M900,179.7c-21.9,0-39.8-18-39.8-39.8
		s18-39.8,39.8-39.8c21.9,0,39.8,18,39.8,39.8S921.9,179.7,900,179.7z"/>
</g>
</svg>
