<?xml version="1.0" encoding="utf-8"?>
<!-- Generator: Adobe Illustrator 17.1.0, SVG Export Plug-In . SVG Version: 6.00 Build 0)  -->
<!DOCTYPE svg PUBLIC "-//W3C//DTD SVG 1.1//EN" "http://www.w3.org/Graphics/SVG/1.1/DTD/svg11.dtd">
<svg version="1.1" id="Layer_1" xmlns="http://www.w3.org/2000/svg" xmlns:xlink="http://www.w3.org/1999/xlink" x="0px" y="0px"
	 viewBox="0 0 128 128" enable-background="new 0 0 128 128" xml:space="preserve">
<g>
	<g>
		<path fill="#DA594C" d="M120.9,110.2H14.2c-1.6,0-2.8-1.3-2.8-2.8V106c0-1.6,1.3-2.8,2.8-2.8c1,0,2,0.6,2.4,1.4h103l2.6-2.6v-56
			l-3.4-3.4c-0.4-0.6-0.7-1.3-0.7-2V23.5h-101V32c0,1.6-1.3,2.8-2.8,2.8s-2.8-1.3-2.8-2.8V20.6c0-1.6,1.3-2.8,2.8-2.8h106.7
			c1.6,0,2.8,1.3,2.8,2.8v18.8l3.4,3.4c0.6,0.6,0.9,1.3,0.9,2v58.3c0,0.7-0.3,1.4-0.9,2l-4.3,4.3
			C122.3,109.9,121.6,110.2,120.9,110.2z"/>
	</g>
	<g>
		<path fill="#DA594C" d="M14.2,84.6c-1.6,0-2.8-1.3-2.8-2.8V60.4c0-1.6,1.3-2.8,2.8-2.8s2.8,1.3,2.8,2.8v21.3
			C17.1,83.3,15.8,84.6,14.2,84.6z"/>
	</g>
	<path fill="#DA594C" d="M24.9,56.2H2.1C1,56.2,0,55.2,0,54V38.4c0-1.1,1-2.1,2.1-2.1h22.8c1.1,0,2.1,1,2.1,2.1V54
		C27,55.2,26,56.2,24.9,56.2z"/>
	<path fill="#DA594C" d="M29.1,101.7H9.2c-1.1,0-2.1-1-2.1-2.1V88.2c0-1.1,1-2.1,2.1-2.1h19.9c1.1,0,2.1,1,2.1,2.1v11.4
		C31.3,100.7,30.3,101.7,29.1,101.7z"/>
	<path fill="#DA594C" d="M62.6,71.8c-0.9,0-1.4,0.6-1.4,1.4v1.4H64v-1.4C64,72.4,63.4,71.8,62.6,71.8z"/>
	<path fill="#DA594C" d="M58.3,71.8c-0.9,0-1.4,0.6-1.4,1.4v1.4h2.8v-1.4C59.7,72.4,59.2,71.8,58.3,71.8z"/>
	<path fill="#DA594C" d="M66.8,71.8c-0.9,0-1.4,0.6-1.4,1.4v1.4h2.8v-1.4C68.3,72.4,67.7,71.8,66.8,71.8z"/>
	<path fill="#DA594C" d="M71.1,71.8c-0.9,0-1.4,0.6-1.4,1.4v1.4h2.8v-1.4C72.5,72.4,72,71.8,71.1,71.8z"/>
	<path fill="#DA594C" d="M75.4,71.8c-0.9,0-1.4,0.6-1.4,1.4v1.4h2.8v-1.4C76.8,72.4,76.2,71.8,75.4,71.8z"/>
	<path fill="#DA594C" d="M79.6,71.8c-0.9,0-1.4,0.6-1.4,1.4v1.4h2.8v-1.4C81.1,72.4,80.5,71.8,79.6,71.8z"/>
	<path fill="#DA594C" d="M83.9,71.8c-0.9,0-1.4,0.6-1.4,1.4v1.4h2.8v-1.4C85.3,72.4,84.8,71.8,83.9,71.8z"/>
	<path fill="#DA594C" d="M88.2,71.8c-0.9,0-1.4,0.6-1.4,1.4v1.4h2.8v-1.4C89.6,72.4,89,71.8,88.2,71.8z"/>
	<path fill="#DA594C" d="M92.4,71.8c-0.9,0-1.4,0.6-1.4,1.4v1.4h2.8v-1.4C93.9,72.4,93.3,71.8,92.4,71.8z"/>
	<path fill="#DA594C" d="M96.7,71.8c-0.9,0-1.4,0.6-1.4,1.4v1.4h2.8v-1.4C98.1,72.4,97.6,71.8,96.7,71.8z"/>
	<path fill="#DA594C" d="M101,71.8c-0.9,0-1.4,0.6-1.4,1.4v1.4h2.8v-1.4C102.4,72.4,101.8,71.8,101,71.8z"/>
	<path fill="#DA594C" d="M105.2,71.8c-0.9,0-1.4,0.6-1.4,1.4v1.4h2.8v-1.4C106.7,72.4,106.1,71.8,105.2,71.8z"/>
	<path fill="#DA594C" d="M109.5,71.8c-0.9,0-1.4,0.6-1.4,1.4v1.4h2.8v-1.4C110.9,72.4,110.4,71.8,109.5,71.8z"/>
	<path fill="#DA594C" d="M113.8,71.8c-0.9,0-1.4,0.6-1.4,1.4v1.4h2.8v-1.4C115.2,72.4,114.6,71.8,113.8,71.8z"/>
	<path fill="#DA594C" d="M109.5,93.2c0.9,0,1.4-0.6,1.4-1.4v-1.4h-2.8v1.4C108.1,92.6,108.6,93.2,109.5,93.2z"/>
	<path fill="#DA594C" d="M113.8,93.2c0.9,0,1.4-0.6,1.4-1.4v-1.4h-2.8v1.4C112.3,92.6,112.9,93.2,113.8,93.2z"/>
	<path fill="#DA594C" d="M105.2,93.2c0.9,0,1.4-0.6,1.4-1.4v-1.4h-2.8v1.4C103.8,92.6,104.4,93.2,105.2,93.2z"/>
	<path fill="#DA594C" d="M101,93.2c0.9,0,1.4-0.6,1.4-1.4v-1.4h-2.8v1.4C99.5,92.6,100.1,93.2,101,93.2z"/>
	<path fill="#DA594C" d="M96.7,93.2c0.9,0,1.4-0.6,1.4-1.4v-1.4h-2.8v1.4C95.3,92.6,95.8,93.2,96.7,93.2z"/>
	<path fill="#DA594C" d="M92.4,93.2c0.9,0,1.4-0.6,1.4-1.4v-1.4H91v1.4C91,92.6,91.6,93.2,92.4,93.2z"/>
	<path fill="#DA594C" d="M88.2,93.2c0.9,0,1.4-0.6,1.4-1.4v-1.4h-2.8v1.4C86.7,92.6,87.3,93.2,88.2,93.2z"/>
	<path fill="#DA594C" d="M83.9,93.2c0.9,0,1.4-0.6,1.4-1.4v-1.4h-2.8v1.4C82.5,92.6,83,93.2,83.9,93.2z"/>
	<path fill="#DA594C" d="M79.6,93.2c0.9,0,1.4-0.6,1.4-1.4v-1.4h-2.8v1.4C78.2,92.6,78.8,93.2,79.6,93.2z"/>
	<path fill="#DA594C" d="M75.4,93.2c0.9,0,1.4-0.6,1.4-1.4v-1.4h-2.8v1.4C73.9,92.6,74.5,93.2,75.4,93.2z"/>
	<path fill="#DA594C" d="M71.1,93.2c0.9,0,1.4-0.6,1.4-1.4v-1.4h-2.8v1.4C69.7,92.6,70.2,93.2,71.1,93.2z"/>
	<path fill="#DA594C" d="M66.8,93.2c0.9,0,1.4-0.6,1.4-1.4v-1.4h-2.8v1.4C65.4,92.6,66,93.2,66.8,93.2z"/>
	<path fill="#DA594C" d="M62.6,93.2c0.9,0,1.4-0.6,1.4-1.4v-1.4h-2.8v1.4C61.1,92.6,61.7,93.2,62.6,93.2z"/>
	<path fill="#DA594C" d="M58.3,93.2c0.9,0,1.4-0.6,1.4-1.4v-1.4h-2.8v1.4C56.9,92.6,57.4,93.2,58.3,93.2z"/>
	<path fill="#DA594C" d="M116.6,76.1H55.5c-0.9,0-1.4,0.6-1.4,1.4v10c0,0.9,0.6,1.4,1.4,1.4h61.2c0.9,0,1.4-0.6,1.4-1.4v-10
		C118,76.7,117.5,76.1,116.6,76.1z M116.6,85.3c-1.6,0-2.8-1.3-2.8-2.8c0-1.6,1.3-2.8,2.8-2.8V85.3z"/>
	<path fill="#DA594C" d="M42.9,46.4c0,12.4,17.1,17.1,25.5,4.4c8.7,13.1,25,7.5,25-4.4s-16.2-17.8-25-4.4
		C60.1,28.7,42.9,34,42.9,46.4L42.9,46.4z M47.5,46.4c0-9,12.7-11.8,18.5,0C60,57.6,47.5,55.3,47.5,46.4L47.5,46.4z M71,46.4
		c5.3-11.9,18.3-8.7,18.2,0C89.2,55,76.1,57.7,71,46.4z"/>
	<rect x="52.2" y="45.1" fill="#DA594C" width="7.5" height="2.4"/>
	<polygon fill="#DA594C" points="79.5,47.5 76.9,47.5 76.9,44.9 79.5,44.9 79.5,42.4 82,42.4 82,44.9 84.5,44.9 84.5,47.5 82,47.5 
		82,49.9 79.5,49.9 	"/>
</g>
</svg>
