<?xml version="1.0" encoding="utf-8"?>
<!-- Generator: Adobe Illustrator 17.1.0, SVG Export Plug-In . SVG Version: 6.00 Build 0)  -->
<!DOCTYPE svg PUBLIC "-//W3C//DTD SVG 1.1//EN" "http://www.w3.org/Graphics/SVG/1.1/DTD/svg11.dtd">
<svg version="1.1" id="Layer_1" xmlns="http://www.w3.org/2000/svg" xmlns:xlink="http://www.w3.org/1999/xlink" x="0px" y="0px"
	 viewBox="0 0 128 128" enable-background="new 0 0 128 128" xml:space="preserve">
<g>
	<g id="Captions_1_">
	</g>
	<g id="Link_1_" display="none">
		<path display="inline" fill="#DA594C" d="M26.3,83.1h14.1c-0.9-2.4-1.4-5-1.7-7.7H27.9c-10.2,0-18.5-8.3-18.5-18.5
			s8.3-18.5,18.5-18.5h28c10.2,0,18.5,8.3,18.5,18.5c0,8.3-5.5,15.3-13,17.7c1.1,1.9,2.8,4.7,4.9,6.9c9.9-3.7,17-13.3,17-24.6
			c0-14.5-11.7-26.2-26.2-26.2H26.3c-14.5,0-26.2,11.7-26.2,26.2C0.1,71.4,11.9,83.1,26.3,83.1z"/>
		<path display="inline" fill="#DA594C" d="M44.8,72.3c0,14.5,11.7,26.2,26.2,26.2h30.8c14.5,0,26.2-11.7,26.2-26.2
			s-11.7-26.2-26.2-26.2H87.6c0.9,2.4,1.4,5,1.7,7.7h11.2c10.2,0,18.5,8.3,18.5,18.5s-8.3,18.5-18.5,18.5h-28
			C62.3,90.8,54,82.5,54,72.3c0-8.5,5.7-15.6,13.4-17.8c-0.6-2.9-2.1-5.4-4.4-7.2C52.5,50.7,44.8,60.6,44.8,72.3z"/>
	</g>
	<g id="Video_1_">
		<path fill="#DA594C" d="M112.6,21.8H15.4C6.9,21.8,0,28.6,0,37.1v53.8c0,8.5,6.9,15.4,15.4,15.4h97.3c8.5,0,15.4-6.9,15.4-15.4
			V37.1C128,28.6,121.1,21.8,112.6,21.8z M53.8,80.4V46l29.8,17.2L53.8,80.4z"/>
	</g>
</g>
</svg>
